<svg 
 xmlns="http://www.w3.org/2000/svg"
 xmlns:xlink="http://www.w3.org/1999/xlink"
 width="418px" height="422px">
   <style>
    :root {
      fill: #FB7299;
    }
    @media (prefers-color-scheme: dark) {
      :root {
        fill: #FB7299;
      }
    }
  </style>
<path
 d="M416.662,351.228 C415.474,390.339 379.278,421.727 334.768,421.727 C289.509,421.727 252.818,389.279 252.818,349.251 C252.818,309.224 289.509,276.775 334.768,276.775 C342.36,276.775 349.78,277.622 355.788,279.192 L355.788,108.691 L165.228,134.428 L164.630,351.228 L164.534,351.228 C163.312,389.178 127.130,419.627 82.642,419.627 C37.382,419.627 0.692,388.119 0.692,349.251 C0.692,310.384 37.382,278.876 82.642,278.876 C91.427,278.876 99.883,280.76 107.817,282.274 L107.652,37.267 L416.979,0.172 L417.189,351.228 L416.662,351.228 Z"/>
</svg>