<svg 
 xmlns="http://www.w3.org/2000/svg"
 xmlns:xlink="http://www.w3.org/1999/xlink"
 width="463px" height="467px">
     <style>
    :root {
      stroke: #000;
      fill: #FB7299;

    }
    @media (prefers-color-scheme: dark) {
      :root {
        stroke: #FB7299;
        fill: None;

      }
    }
  </style>
<path fill-rule="evenodd" stroke-width="30px" stroke-linecap="round" stroke-linejoin="round" 
 d="M350.768,436.727 C305.509,436.727 268.818,404.279 268.818,364.251 C268.818,324.224 305.509,291.775 350.768,291.775 C357.676,291.775 364.380,292.539 370.788,293.963 L370.788,123.691 L180.228,149.428 L179.630,366.228 L179.534,366.228 C178.312,404.178 142.130,434.627 97.642,434.627 C52.382,434.627 15.692,403.119 15.692,364.251 C15.692,325.384 52.382,293.876 97.642,293.876 C106.427,293.876 114.883,295.76 122.817,297.274 L122.652,52.267 L431.979,15.172 L432.183,356.58 C432.525,358.749 432.718,361.479 432.718,364.251 C432.718,404.279 396.28,436.727 350.768,436.727 Z"/>
</svg>